HIERARCHY
ROOT Spine
{
    OFFSET 0.0 0.0 -0.0
    CHANNELS 6 Xposition Yposition Zposition Zrotation Xrotation Yrotation
    JOINT ShoulderCenter
    {
        OFFSET 0.0 32.76346969604492 0.0
        CHANNELS 3 Zrotation Xrotation Yrotation
        JOINT LeftShoulder
        {
            OFFSET 19.210508346557617 0.0 0.0
            CHANNELS 3 Zrotation Xrotation Yrotation
            JOINT LeftElbow
            {
                OFFSET 28.85390853881836 0.0 0.0
                CHANNELS 3 Zrotation Xrotation Yrotation
                JOINT LeftHand
                {
                    OFFSET 32.686134338378906 0.0 0.0
                    CHANNELS 3 Zrotation Xrotation Yrotation
                    End Site
                    {
                        OFFSET 13.074454307556152 0.0 0.0
                    }
                }
            }
        }
        JOINT RightShoulder
        {
            OFFSET -19.210508346557617 0.0 0.0
            CHANNELS 3 Zrotation Xrotation Yrotation
            JOINT RightElbow
            {
                OFFSET -28.85390853881836 0.0 0.0
                CHANNELS 3 Zrotation Xrotation Yrotation
                JOINT RightHand
                {
                    OFFSET -32.686134338378906 0.0 0.0
                    CHANNELS 3 Zrotation Xrotation Yrotation
                    End Site
                    {
                        OFFSET -13.074454307556152 0.0 0.0
                    }
                }
            }
        }
        End Site
        {
            OFFSET 0.0 13.105390548706055 0.0
        }
    }
    JOINT LeftHip
    {
        OFFSET 16.127129456971193 -16.127129456971193 0.0
        CHANNELS 3 Zrotation Xrotation Yrotation
        JOINT LeftKnee
        {
            OFFSET 0.0 -41.173683166503906 0.0
            CHANNELS 3 Zrotation Xrotation Yrotation
            JOINT LeftFoot
            {
                OFFSET 0.0 -50.059242248535156 0.0
                CHANNELS 3 Zrotation Xrotation Yrotation
                End Site
                {
                    OFFSET 0.0 0.0 20.023696899414062
                }
            }
        }
    }
    JOINT RightHip
    {
        OFFSET -16.127129456971193 -16.127129456971193 0.0
        CHANNELS 3 Zrotation Xrotation Yrotation
        JOINT RightKnee
        {
            OFFSET 0.0 -41.173683166503906 0.0
            CHANNELS 3 Zrotation Xrotation Yrotation
            JOINT RightFoot
            {
                OFFSET 0.0 -50.059242248535156 0.0
                CHANNELS 3 Zrotation Xrotation Yrotation
                End Site
                {
                    OFFSET 0.0 0.0 20.023696899414062
                }
            }
        }
    }
}
MOTION
Frames: 4
Frame Time: 0.03333333333333333
74.5 60.000003814697266 220.0 0.7368854646802823 -15.798063229826932 174.97414825792308 -1.0743759211716571e-07 -1.1597764274748484e-06 -6.420147953621755 104.49615256885976 31.935504411997254 -69.24726106762073 3.992863644700255e-06 -7.891821079282247e-07 76.8832182163185 -7.355032700884382e-15 0.0 0.0 -96.00619076087094 -0.3639635443873901 67.09011256200235 8.575961440529092e-07 1.5300635372323224e-06 -83.12690269525946 1.1728295387896719e-14 -7.951386703658792e-16 8.13813973702998e-32 32.66842253380035 -56.7356026117029 108.17101539261438 47.18483715577404 7.253172285134415 -164.4351575865115 -8.276074308844047e-33 -7.951386703658792e-16 -1.1927080055488188e-15 -8.891816447862427 -61.18740740040287 -61.50960227479412 -39.59140365650559 25.003009881321983 115.62630234130923 0.0 0.0 1.3666445896913546e-15
74.5 60.10000228881836 218.89999389648438 1.1088096452188265 -16.526626006916587 174.96127451351092 6.363305537388873e-08 -7.208093226259887e-07 -6.083611135770596 102.58035592653066 29.03145362055426 -68.8240609464047 2.441386755384308e-06 9.285008243820587e-07 81.40109779504694 -8.249563705045995e-15 2.28971389211352e-31 -3.180554681463516e-15 -95.23629297486733 -0.3395331579961268 65.8889173063387 1.7223740484418021e-06 6.736172013341677e-07 -85.90482888358189 -2.6338968455869747e-15 -3.9756933518293955e-16 -1.1927080055488188e-15 31.028439694307735 -55.70687753932781 105.33834337109285 41.336987021862946 6.982815938272414 -160.67139989013094 -1.517280289954742e-32 7.951386703658794e-16 2.186631343506168e-15 -7.002108292678604 -60.30490364996316 -58.32148620758761 -34.22292995528301 23.747732988952457 104.17031551259807 9.93923337957349e-17 2.0582424387880378e-33 2.3729919693731707e-15
74.4000015258789 60.000003814697266 217.60000610351562 1.3019612443565003 -17.307454678325293 175.0068769833086 -1.4889216932549974e-07 -5.6438625526603344e-08 -5.9192910572807 100.88184220441724 27.62967340706896 -67.64449947991129 5.830794624484593e-07 -4.269167807681407e-06 84.59865205454759 8.94531004161614e-15 -1.5902773407317582e-15 1.5902773407317584e-15 -95.0510089922611 -0.22935890920089014 64.95036276155102 1.4417141048518556e-06 3.7676168403677574e-06 -88.74403677533522 -6.535045947069568e-15 1.9878466759146985e-16 -7.951386703658791e-16 29.014845757952394 -54.8280007515113 101.31743440256407 35.32974513469374 7.14524771298372 -152.34590038007605 -5.963540027744094e-16 -7.951386703658792e-16 2.559352595240174e-15 -5.613759133015235 -60.04331195819208 -57.07579281525925 -30.200473892032957 21.548609963741928 92.36741371977571 1.987846675914698e-16 7.951386703658792e-16 -5.963540027744094e-16
74.29999542236328 60.000003814697266 216.1999969482422 1.497579543842722 -17.922182689878543 175.30501347382946 1.9343363253180876e-07 -1.93108896778144e-06 -5.970241454615396 99.7941721556614 25.898111540650813 -66.85581808993567 -1.5158229431406797e-06 5.404976799343061e-06 87.64071827593446 -2.6338968455869743e-15 -1.9878466759146976e-15 3.975693351829395e-16 -94.01574451174815 -0.8291143135391943 64.71796513044231 -2.760265602782527e-06 4.9219451841703195e-06 -91.43033900926827 8.572588789882136e-15 9.939233379573489e-17 -9.93923337957349e-17 26.84106019516338 -53.72505811681669 97.4478774091895 29.482583203960615 6.862748413741591 -139.7521226478869 -5.963540027744092e-16 3.975693351829395e-16 -2.286023677301902e-15 -4.628751752690439 -59.10347248813062 -55.449236933638566 -25.425806701695695 19.14593640375652 78.10556718165235 1.987846675914698e-16 1.5902773407317584e-15 -1.987846675914698e-16
